<svg version="1" xmlns="http://www.w3.org/2000/svg" width="738.667" height="738.667" viewBox="0 0 554.000000 554.000000"><path d="M118.2 83.6c-2.5 1.7-2.8 4.2-.9 6.6 2.1 2.8 5.4 3.1 7.6.9 2.6-2.6 2.6-4.6.1-7.1-2.4-2.4-3.8-2.5-6.8-.4zM433 84c-1.1 1.1-2 2.7-2 3.5 0 .8.9 2.4 2 3.5s2.7 2 3.5 2c2.1 0 5.5-3.6 5.5-5.8 0-2.3-3-5.2-5.3-5.2-.9 0-2.6.9-3.7 2zM192.3 93.3c-5.1 2.3-3 9.7 2.7 9.7 2.1 0 3-.7 4-2.9 2.1-5.1-1.8-9-6.7-6.8zM361.2 93.1c-3 1.1-3.9 5.4-1.7 7.9 4 4.4 10.7.3 8.6-5.2-1.1-2.9-3.7-3.9-6.9-2.7zM109 99.7c-4.3 1.7-5.2 7.2-1.7 10.7 2.8 2.8 7 2.5 9.2-.7 3.9-5.6-1.2-12.4-7.5-10zM443.9 99.7c-2.7.7-4.4 5-3.3 8.1 1.9 5.4 8.4 6.1 11.3 1 1.9-3.3.8-7.2-2.4-8.6-2.7-1.2-2.9-1.3-5.6-.5zM192 114.3c-2.9 1.4-3.8 5.8-2 9.3 1.6 2.9 4 3.5 7.7 1.9 5.1-2.1 5.3-8.8.3-11.5-2.4-1.3-2.9-1.2-6 .3zM358.5 115.5c-3 2.9-3.1 5.1-.6 8.4 4.3 5.6 14.1-.2 10.8-6.4-2.6-4.9-6.6-5.7-10.2-2zM104 121.7c-5.3 2-6.7 8.3-2.7 12.1 2.9 2.8 5.7 2.8 9.1.1 1.9-1.5 2.6-3 2.6-5.4 0-4.9-4.6-8.4-9-6.8zM447.4 123.3c-3.6 3.1-3.6 7.3.1 10.5 3 2.6 6.5 2.4 9.8-.5 2.7-2.5 2.2-7.8-.9-10.2-3.4-2.7-5.7-2.6-9 .2zM65.2 127.3c-4.2 1.9-4.1 8.5.1 10.4 5.1 2.3 10.3-3.6 7.3-8.2-1.8-2.7-4.4-3.5-7.4-2.2zM488.3 127.1c-5.3 2-4.7 9.5.9 11 4.7 1.2 8.8-4.6 6-8.7-1.3-2.1-4.7-3.2-6.9-2.3zM183.1 138.7c-5.9 4.8-2.2 14.8 5.3 14.6 6.7-.2 10.2-6.2 7.2-12.1-2.4-4.6-8.5-5.8-12.5-2.5zM364.1 138.7c-1.2 1-2.4 3.4-2.7 5.4-1.3 8.1 8.9 12.7 14.3 6.4 4.7-5.4 1-13.5-6.2-13.5-1.8 0-4.2.8-5.4 1.7zM113.9 144c-3.4 3.3-3.7 6.7-.9 10.3 4.3 5.4 12.3 3.8 13.6-2.9.7-4-.9-8-3.7-8.9-4.9-1.6-6.2-1.4-9 1.5zM436.5 142.1c-3.8 1.1-5.5 3.4-5.5 7.6 0 3 2.7 7.2 4.8 7.4.4 0 1.7.2 2.9.5 3.2.6 8.3-4.1 8.3-7.6 0-3.1-3.1-7.5-5.7-8.2-1-.3-3.1-.1-4.8.3zM62.8 150.8c-4.9 2.9-4.6 9.3.5 12.6 6.8 4.4 15-6.4 8.8-11.7-2.7-2.4-6.4-2.7-9.3-.9zM486.4 151.3c-3.7 3.2-3.6 8.3.1 11.3 6.9 5.5 16-3.4 10.3-10.1-3.1-3.5-7.1-4-10.4-1.2zM136.4 160c-5.6 2.3-6.9 9-2.8 13.9 3 3.6 6.9 4.1 11.4 1.4 9-5.3 1-19.4-8.6-15.3zM415.3 159.7c-2.9.6-6.3 4.9-6.3 7.9 0 5.5 3.9 9.4 9.6 9.4 3.7 0 8.4-5.1 8.4-9 0-2.2-.9-4.1-2.9-6.1-2.9-2.8-4.1-3.1-8.8-2.2zM166.9 165.9c-3.3 3.4-3.7 6.9-1.2 11.2 4.1 6.9 15.1 4.8 16.7-3.2 1.8-9-8.9-14.5-15.5-8zM379.3 164.5c-2.8 2-4.6 7.5-3.4 10.6 3.8 10 18.1 7.1 18.1-3.6 0-1.3-1.2-3.7-2.6-5.4-2-2.4-3.4-3.1-6.3-3.1-2 0-4.6.7-5.8 1.5zM23 170.3c-2.4 2.5-2.5 4.5-.4 7.5 3 4.3 10.4 1.8 10.4-3.6 0-1.9-2.3-5.1-3.8-5.3-.4 0-1.5-.2-2.5-.4s-2.7.6-3.7 1.8zM527.1 170.1c-2.7 2.6-2.7 6.4.1 8.3 4.4 3.1 8 1.7 9.3-3.4 1.3-5.2-5.4-8.6-9.4-4.9zM66.5 177.5c-5.1 5-1.5 13.6 5.7 13.8 4.4.1 7.4-2.2 8.3-6.3 1.8-8-8.2-13.4-14-7.5zM481.2 175.7c-2.2.9-4.4 6.3-3.7 9.3.9 3.9 3.7 6.2 8.1 6.3 2.9.1 4.2-.5 6.1-2.8 4.7-5.4 1-13.6-6.1-13.4-1.7 0-3.7.3-4.4.6zM35.5 186c-3.9 4.3-.4 11.5 5.3 10.8 3.3-.4 6.6-4.9 5.7-7.7-1.6-5.1-7.6-6.9-11-3.1zM513.3 186c-2.5 2.9-2.6 6.1-.1 8.7 5.8 6.2 15-2.4 9.3-8.7-2.3-2.6-7-2.6-9.2 0zM145.7 188c-5.8 4.6-4 14.8 2.9 17 8.6 2.9 16.1-5.9 11.9-13.9-2.7-5.3-10.1-6.8-14.8-3.1zM400.4 187.7c-5.1 4.2-5.7 9.8-1.6 14.4 6.8 7.7 18.7 1.7 16.8-8.4-.3-1.9-1.6-4.3-2.9-5.4-2.9-2.6-9.5-2.9-12.3-.6zM56 197.7c-6.6 2.6-4.3 13.6 2.8 13.6 4.3 0 7.2-2.8 7.2-7 0-5.5-4.7-8.6-10-6.6zM494.7 198.2c-.9.7-2.1 2.8-2.6 4.6-.8 2.7-.6 3.6 1.2 5.8 4.6 5.3 12.7 2.3 12.7-4.6 0-5.2-7.2-8.8-11.3-5.8zM80.3 202.9c-3.1 2.6-4.2 6-3.1 9.9.9 3.5 5.8 7.2 8.6 6.7 1-.2 2.3-.4 3-.4 2.9-.2 6.2-4.9 6.2-8.9 0-7.7-8.9-12.1-14.7-7.3zM465.7 203.5c-3 3.1-3.7 8.8-1.4 11.8 6 8 18.8 2.7 16.7-6.9-1.1-4.9-3-6.5-8.2-7.1-3.7-.4-4.7-.1-7.1 2.2zM112.4 214.4c-6 2.6-8 8.6-4.9 14.6 5.9 11.3 23.4 2 18-9.5-2.4-5-8.1-7.2-13.1-5.1zM440 213.7c-4 1.3-6 2.9-7.5 6-2 4.2-1.3 7.8 2.3 11.5 5.2 5.5 14.9 2.8 16.8-4.7 1.7-6.9-5.4-14.8-11.6-12.8zM145.3 219c-2.7 1.1-5 4.5-5.7 8.4-1.4 8.1 8.5 15.3 15.7 11.4 6.4-3.4 8.1-10.2 4.1-16.3-2.7-4.2-8.7-5.6-14.1-3.5zM402.3 219c-7.6 3.1-7.5 15.8.2 19.4 4.2 2 7 2 10.4 0 12.3-7.2 2.7-24.7-10.6-19.4zM139 252.3c-11.9 4.1-9.5 22.1 3.1 23.4 13.4 1.3 18.7-16.7 6.8-22.7-4.4-2.3-5.1-2.3-9.9-.7zM410.5 252c-1.1.4-3.2 1.9-4.6 3.4-7.9 7.9-1.2 21.5 10 20.3 14.4-1.6 14.3-22.9-.1-24.2-1.8-.1-4.2.1-5.3.5zM48.8 256.7c-2.6 3.1-2.9 4.2-1.7 6.5 1.5 2.9 2.8 3.8 5.6 3.8 5.1 0 7.3-7.5 3.1-10.4-2.9-2.1-5.1-2-7 .1zM502.2 256.6c-4.2 2.9-1.8 10.5 3.4 10.4 5.1-.1 7.8-7.5 3.8-10.5-2.5-1.9-4.4-1.9-7.2.1zM64.1 273.6c-1.2 1.5-2.1 3.8-2.1 5.1 0 3.2 4.2 7.3 7.5 7.3 3.5 0 7.5-4.2 7.5-7.8 0-6.5-8.9-9.7-12.9-4.6zM483.2 273c-3.2 3-3 8.2.4 10.9 3.5 2.8 6.9 2.6 9.9-.4s3.2-6.4.4-9.9c-2.6-3.3-7.5-3.5-10.7-.6zM86.8 285.8c-4 4.1-3 11 1.9 13.6 8.3 4.3 16.4-6.4 9.8-12.9-2.9-3-9.1-3.3-11.7-.7zM459.5 286.5c-6.6 6.5 1.5 17.2 9.7 12.9 3.5-1.8 4.6-4 4.3-8.3-.6-6.7-9.1-9.5-14-4.6zM150 286.7c-4.4 2.3-8 9-7.3 13.6 1.6 10.6 13.4 15.7 21.8 9.3 4.2-3.3 5.9-7.4 5.1-12.9-1.4-9-11.5-14.2-19.6-10zM395.9 286.6c-7.1 3-10 13-5.6 19.5 9.5 14.2 31.1 1.9 23.4-13.3-3.5-6.9-10.4-9.3-17.8-6.2zM116 293.3c-1.7 1-3.1 2.6-3.2 3.5-.5 4.8-.3 5.9.8 8.3 2.5 5.2 10.1 6.2 14.4 1.9 4.3-4.3 3.3-11.8-2-14.5-3.4-1.8-6.3-1.6-10 .8zM431.9 292.5c-7.2 3.9-5.5 15.1 2.6 17.1 9.6 2.4 15.5-11.3 7.1-16.5-3.9-2.4-6.1-2.6-9.7-.6zM181.3 313.6c-6.5 3.2-9.6 12.1-6.8 19.1 4.8 11.9 21.2 12.7 27.3 1.2 6.8-12.9-7.2-26.8-20.5-20.3zM361.3 314.2c-6.8 4.8-8.8 12.7-5.1 19.7 7.1 13.3 26 9.8 28.3-5.3.8-4.5-2.2-11.1-6.2-14.1-4.1-2.9-12.9-3.1-17-.3zM215.4 341.9c-10.4 4.7-13.1 17.3-5.7 26.2 5 5.9 13.2 7.5 20.3 3.9 5.4-2.7 8.3-7.2 8.8-13.6 1.1-12.9-11.7-21.9-23.4-16.5zM327.7 342.4c-6 3.2-8.9 8.5-8.4 15.7.9 15.9 19.8 21.6 29.8 8.9 4.7-5.9 4.3-15.6-.9-21.3-4.9-5.4-13.7-6.8-20.5-3.3zM239.3 383.1c-8.7 4.3-12.5 15.1-8.5 24.1 5.3 12 21.3 15 30.3 5.5 7-7.4 7.3-17.8.6-25.4-5.7-6.5-14.5-8.2-22.4-4.2zM302.8 382.4c-8.2 3.6-13.1 13.4-10.8 21.5 3.3 11.7 15.7 17.7 26.3 12.6 13.7-6.5 14-26.8.5-33.4-4.9-2.3-11.7-2.6-16-.7zM269.5 429.8c-9.9 6.3-12.7 17-7.1 26.6 6.7 11.4 23.2 11.9 31 .8 6-8.5 3.9-20.3-4.6-26-5.4-3.5-14.9-4.2-19.3-1.4z"/></svg>